<svg version="1.2" xmlns="http://www.w3.org/2000/svg" viewBox="0 0 857 336" width="857" height="336">
	<style>
		.s0 { fill: #000000 } 
	</style>
	<path fill-rule="evenodd" class="s0" d="m180.75 155.33l-30.37 10.63-17.71-18.73-15.19-8.11-9.63 1.53-8.08-0.5-8.6 4.04-11.15 4.56q-3.05 3.04-9.37 12.42-6.32 9.35-11.63 22.27-5.31 12.9-5.31 27.56 0 13.67 8.85 21.02 8.85 7.34 12.9 8.85l68.85-3.54q0.5 0 0.5 0 0 0 0.5 0 10.13 0 19.75 9.13 9.63 9.11 9.63 17.71 0 6.58-8.11 13.16-8.1 6.57-22.77 12.65-6.58 2.52-13.68 5.06-7.09 2.52-13.15 2.52-2.55 0-9.63-1.25-7.08-1.27-12.91-2.54-5.81-1.27-5.81-1.27l-17.21-0.5q-14.69-0.5-22.54-6.31-7.84-5.83-21-15.46l-20.25-17.71-2.03-14.69-5.56-22.27 2.02-13.16 0.5-12.15 15.71-47.58q1-4.57 7.06-10.88 6.08-6.33 13.42-12.64 7.35-6.33 12.92-10.63 5.58-4.31 5.58-4.31l16.69-11.15h10.64q0 0 6.84-1 6.83-1.02 11.89-1.02 19.23 0 36.94 6.83 17.73 6.84 29.1 16.21 11.4 9.36 11.4 17.46zm283.98 39.98q0 16.21-11.15 33.17-11.13 16.96-27.33 31.64-16.19 14.67-32.4 23.79-16.18 9.11-26.31 9.11-22.27 0-40-5.31-17.71-5.33-28.08-10.65-10.38-5.31-10.38-5.31l-15.19-6.59-14.68-24.29q-7.59-12.64-10.63-22.27-3.04-9.62-3.04-26.33 0-15.19 8.35-32.65 8.36-17.45 23.03-33.14 14.68-15.71 33.16-25.57 18.48-9.87 38.23-9.87 1.52 0 3.02 0.25 1.52 0.25 3.04 0.25l21.27 2.02 11.13 8.1 18.73 7.61 8.1 10.62q0 0 7.84 7.61 7.85 7.58 17.73 19.23 9.87 11.62 17.7 24.54 7.86 12.92 7.86 24.04zm-52.13 1.52l-3.04-19.23-4.06-7.6-10.63-5.06-14.66-16.71-19.75-3.02-16.71-6.59q0 0.01-7.86 2.02-7.83 2.03-18.2 8.11-10.38 6.06-18.23 16.71-7.86 10.62-7.86 28.33 0 9.63 7.09 17.98 7.1 8.36 17.98 14.44 10.89 6.06 22.52 9.6 11.64 3.54 20.77 3.54 8.08 0 20.73-5.06 12.66-5.06 22.54-13.92 9.87-8.85 9.87-20 0-1-0.25-2.02-0.25-1.02-0.25-1.52zm332.58-92.12q0 1.52-2.04 9.37-2.03 7.84-4.56 17.71-2.53 9.88-4.55 16.96-2.02 7.08-2.02 7.08l0.5 29.36q0 30.87-6.33 52.14-6.32 21.25-12.65 31.9-6.33 10.62-6.33 10.62l-40.5 47.09-20.75 9.1-22.27-6.08-1.52-12.65q-1-2.55-2.02-5.31-1.02-2.79-1.02-4.81 0-8.11 2.02-12.15 2.04-4.06 6.58-8.6 4.56-4.56 12.67-13.67 10.12-11.14 18.21-23.04 8.1-11.9 14.68-27.59 2.54-4.03 4.32-7.08 1.76-3.04 1.77-4.56-0.01-1.52-1.52-1.52-8.11 0-12.67 0.77-4.54 0.75-9.1 2.02-4.57 1.27-13.67 2.02-9.11 0.75-26.83 0.75-3.55 0-12.4-1.5-8.86-1.52-16.21-3.04-7.33-1.52-7.33-1.52l-8.61-11.15-11.14-7.58-11.13-26.84q-2.02-2.51-5.06-10.1-3.04-7.6-3.04-21.27 0-27.33 14.42-49.1 14.43-21.77 43.29-45.07 12.66-10.12 22.02-18.73 9.37-8.6 18.98-13.66 9.62-5.07 21.77-5.07 11.64 0.01 19.73 6.34 8.1 6.33 11.66 10.87l13.15 5.07q0 0 6.06 6.58 6.08 6.59 13.67 18.23 7.6 11.64 13.69 26.58 6.08 14.92 6.08 31.13zm-58.23 2.02q0-12.15-6.33-22.02-6.32-9.88-14.92-15.44-8.61-5.56-14.69-5.56-16.71 0-25.56 10.37-8.86 10.38-15.94 20.5-6.58 9.63-10.89 15.19-4.3 5.56-4.29 12.64 0 17.21 10.62 27.09 10.62 9.87 28.35 9.87 8.09 0 12.65-4.81 4.56-4.81 4.56-4.81l17.71-8.61 10.13-6.06q2.01-4.06 5.31-12.14 3.29-8.11 3.29-16.21zm169.58 156.91q0 14.69-13.92 26.09-13.92 11.37-30.62 11.37-16.21 0-27.11-9.35-10.87-9.37-10.87-23.54 0-14.17 6.33-20.5 6.33-6.33 13.42-7.86 7.08-1.52 9.1-1.52l27.36-2.02 7.58 6.08q4.56 2.03 11.65 6.59 7.08 4.54 7.08 14.66z"/>
</svg>